<?xml version="1.0" encoding="UTF-8"?>
<!DOCTYPE svg PUBLIC "-//W3C//DTD SVG 1.1//EN" "http://www.w3.org/Graphics/SVG/1.1/DTD/svg11.dtd">
<!-- Creator: CorelDRAW 2019 (64-Bit) -->
<svg xmlns="http://www.w3.org/2000/svg" xml:space="preserve" version="1.1" style="shape-rendering:geometricPrecision; text-rendering:geometricPrecision; image-rendering:optimizeQuality; fill-rule:evenodd; clip-rule:evenodd"
viewBox="0 0 24500 11000"
 xmlns:xlink="http://www.w3.org/1999/xlink">
 <defs>
  <style type="text/css">
   <![CDATA[
    .str0 {stroke:black;stroke-width:3;stroke-linejoin:bevel;stroke-miterlimit:2.61313}
    .fil0 {fill:black}
   ]]>
  </style>
 </defs>
 <g id="Layer_x0020_1">
  <metadata id="CorelCorpID_0Corel-Layer"/>
  <polygon class="fil0 str0" points="24358.46,9895.39 23199.07,9895.39 23199.07,9659.28 24122.35,9659.28 24122.35,1340.72 23179.43,1340.72 23179.43,1104.61 24358.46,1104.61 "/>
  <polygon class="fil0" points="1308.72,9895.39 141.54,9895.39 141.54,1104.61 1320.57,1104.61 1320.57,1340.72 377.65,1340.72 377.65,9659.28 1308.72,9659.28 "/>
  <g id="_2906113230896">
   <path class="fil0 str0" d="M2986.48 1751.7l619.98 0 909.31 3200.95 -284.73 0 -270.96 -877.17 -1350.19 0 -257.18 877.17 -284.73 0 918.49 -3200.95zm-307.7 2062.02l1221.6 0 -514.36 -1809.44 -192.89 0 -514.35 1809.44z"/>
   <path class="fil0 str0" d="M4906.06 4952.66c0,0 0,-3200.95 0,-3200.95 0,0 1115.96,0 1115.96,0 863.39,0 1129.75,716.43 1129.75,1552.26 0,840.42 -257.17,1648.7 -1129.75,1648.7 0,0 -1115.96,0 -1115.96,0zm1115.96 -2939.18c0,0 -835.83,0 -835.83,0 0,0 0,2677.41 0,2677.41 0,0 835.83,0 835.83,0 656.72,0 835.83,-743.98 835.83,-1386.93 0,-642.95 -179.11,-1290.48 -835.83,-1290.48z"/>
   <polygon class="fil0 str0" points="9714.33,1751.7 8878.5,4952.66 8198.82,4952.66 7349.21,1751.7 7638.54,1751.7 8419.26,4695.48 8658.06,4695.48 9425.01,1751.7 "/>
   <path class="fil0 str0" d="M10733.8 1751.7l619.99 0 909.3 3200.95 -284.73 0 -270.96 -877.17 -1350.19 0 -257.18 877.17 -284.73 0 918.49 -3200.95zm-307.69 2062.02l1221.6 0 -514.36 -1809.44 -192.88 0 -514.35 1809.44z"/>
   <polygon class="fil0 str0" points="12653.37,1751.7 13204.48,1751.7 14517.92,4672.52 14623.54,4672.52 14623.54,1751.7 14908.28,1751.7 14908.28,4952.66 14361.78,4952.66 13034.55,2031.85 12933.52,2031.85 12933.52,4952.66 12653.37,4952.66 "/>
   <path class="fil0 str0" d="M17374.35 4906.74c0,0 -486.8,91.85 -840.42,91.85 -936.86,0 -1134.34,-629.17 -1134.34,-1634.93 0,-1014.93 192.88,-1657.88 1134.34,-1657.88 413.32,0 845.01,91.85 845.01,91.85 0,0 -18.36,257.18 -18.36,257.18 0,0 -473.03,-82.67 -803.69,-82.67 -757.77,0 -863.39,532.72 -863.39,1391.52 0,849.61 110.22,1363.97 867.97,1363.97 289.33,0 799.1,-78.07 799.1,-78.07 0,0 13.77,257.18 13.77,257.18z"/>
   <polygon class="fil0 str0" points="17819.73,1751.7 19684.28,1751.7 19684.28,2013.48 18099.88,2013.48 18099.88,3193.74 19408.74,3193.74 19408.74,3450.92 18099.88,3450.92 18099.88,4690.89 19684.28,4690.89 19684.28,4952.66 17819.73,4952.66 "/>
   <path class="fil0 str0" d="M20193.95 4952.66c0,0 0,-3200.95 0,-3200.95 0,0 1115.98,0 1115.98,0 863.38,0 1129.75,716.43 1129.75,1552.26 0,840.42 -257.19,1648.7 -1129.75,1648.7 0,0 -1115.98,0 -1115.98,0zm1115.98 -2939.18c0,0 -835.83,0 -835.83,0 0,0 0,2677.41 0,2677.41 0,0 835.83,0 835.83,0 656.72,0 835.83,-743.98 835.83,-1386.93 0,-642.95 -179.11,-1290.48 -835.83,-1290.48z"/>
   <polygon class="fil0 str0" points="1172.48,6020.39 1452.63,6020.39 1452.63,9221.33 1172.48,9221.33 "/>
   <polygon class="fil0 str0" points="2090.97,6020.39 2642.06,6020.39 3955.52,8941.2 4061.14,8941.2 4061.14,6020.39 4345.87,6020.39 4345.87,9221.33 3799.37,9221.33 2472.14,6300.52 2371.11,6300.52 2371.11,9221.33 2090.97,9221.33 "/>
   <polygon class="fil0 str0" points="4612.15,6020.39 6798.17,6020.39 6798.17,6286.74 5852.11,6286.74 5852.11,9221.33 5571.98,9221.33 5571.98,6286.74 4612.15,6286.74 "/>
   <polygon class="fil0 str0" points="7073.67,6020.39 8938.22,6020.39 8938.22,6282.15 7353.81,6282.15 7353.81,7462.41 8662.67,7462.41 8662.67,7719.6 7353.81,7719.6 7353.81,8959.56 8938.22,8959.56 8938.22,9221.33 7073.67,9221.33 "/>
   <path class="fil0 str0" d="M10550.08 7962.99c0,0 -822.06,0 -822.06,0 0,0 0,1258.34 0,1258.34 0,0 -280.14,0 -280.14,0 0,0 0,-3200.94 0,-3200.94 0,0 1115.97,0 1115.97,0 656.72,0 991.98,316.88 991.98,950.64 0,463.83 -169.92,817.46 -610.8,932.27 0,0 652.13,1318.04 652.13,1318.04 0,0 -312.29,0 -312.29,0 0,0 -624.57,-1262.93 -624.57,-1262.93 0,0 -110.22,4.59 -110.22,4.59zm13.78 -1680.84c0,0 -835.83,0 -835.83,0 0,0 0,1423.67 0,1423.67 0,0 840.43,0 840.43,0 518.95,0 698.05,-326.06 698.05,-734.79 0,-440.89 -234.21,-688.88 -702.65,-688.88z"/>
   <polygon class="fil0 str0" points="12088.53,6020.39 13957.66,6020.39 13957.66,6282.15 12368.67,6282.15 12368.67,7609.38 13682.12,7609.38 13682.12,7866.55 12368.67,7866.55 12368.67,9221.33 12088.53,9221.33 "/>
   <path class="fil0 str0" d="M15041.43 6020.39l619.98 0 909.32 3200.94 -284.74 0 -270.96 -877.17 -1350.19 0 -257.17 877.17 -284.74 0 918.5 -3200.94zm-307.7 2062.02l1221.59 0 -514.35 -1809.44 -192.89 0 -514.36 1809.44z"/>
   <path class="fil0 str0" d="M18742.88 9175.41c0,0 -486.8,91.85 -840.42,91.85 -936.86,0 -1134.34,-629.17 -1134.34,-1634.92 0,-1014.94 192.87,-1657.88 1134.34,-1657.88 413.32,0 845.01,91.85 845.01,91.85 0,0 -18.36,257.17 -18.36,257.17 0,0 -473.02,-82.67 -803.69,-82.67 -757.76,0 -863.38,532.73 -863.38,1391.52 0,849.6 110.22,1363.96 867.97,1363.96 289.33,0 799.1,-78.06 799.1,-78.06 0,0 13.77,257.17 13.77,257.17z"/>
   <polygon class="fil0 str0" points="19188.26,6020.39 21052.81,6020.39 21052.81,6282.15 19468.41,6282.15 19468.41,7462.41 20777.27,7462.41 20777.27,7719.6 19468.41,7719.6 19468.41,8959.56 21052.81,8959.56 21052.81,9221.33 19188.26,9221.33 "/>
   <path class="fil0 str0" d="M23243.33 6305.11c0,0 -615.4,-73.48 -881.76,-73.48 -463.85,0 -716.43,197.48 -716.43,564.87 0,436.28 229.62,546.5 789.91,661.31 615.39,133.18 900.13,303.1 900.13,835.83 0,670.5 -316.88,964.43 -987.39,964.43 -367.39,0 -959.82,-78.08 -959.82,-78.08 0,0 22.96,-257.17 22.96,-257.17 0,0 606.2,73.48 923.07,73.48 473.03,0 716.43,-215.85 716.43,-684.28 0,-367.39 -202.07,-495.98 -734.79,-601.62 -647.55,-137.77 -955.25,-307.69 -955.25,-909.31 0,-560.28 362.81,-835.83 991.98,-835.83 376.59,0 909.31,87.26 909.31,87.26 0,0 -18.36,252.58 -18.36,252.58z"/>
  </g>
 </g>
</svg>
