<svg
    viewBox="0 0 17204 9269"
	xmlns="http://www.w3.org/2000/svg"
	xmlns:xlink="http://www.w3.org/1999/xlink"
	xmlns:lucid="lucid">
	<g transform="translate(23.16500972153156 1.114224104489196)" lucid:page-tab-id="0_0">
		<path d="M877.26 699.85h215.25v170H877.27z" fill="#fff"/>
		<path d="M898.78 699.85h-21.52v170h21.52" stroke="#000" stroke-width="2" fill="none"/>
		<use xlink:href="#a" transform="matrix(1,0,0,1,895.7094113214574,704.8459478794844) translate(0 35.55555555555556)"/>
		<use xlink:href="#b" transform="matrix(1,0,0,1,895.7094113214574,704.8459478794844) translate(0 71.11111111111111)"/>
		<use xlink:href="#c" transform="matrix(1,0,0,1,895.7094113214574,704.8459478794844) translate(106.98666666666666 71.11111111111111)"/>
		<use xlink:href="#d" transform="matrix(1,0,0,1,895.7094113214574,704.8459478794844) translate(0 106.66666666666667)"/>
		<use xlink:href="#e" transform="matrix(1,0,0,1,895.7094113214574,704.8459478794844) translate(77.61777777777777 106.66666666666667)"/>
		<use xlink:href="#f" transform="matrix(1,0,0,1,895.7094113214574,704.8459478794844) translate(0 142.22222222222223)"/>
		<path d="M1300.48 682.48h376.77V905.8h-376.77z" fill="#fff"/>
		<path d="M1338.16 682.48h-37.68V905.8h37.68" stroke="#000" stroke-width="2" fill="none"/>
		<use xlink:href="#g" transform="matrix(1,0,0,1,1329.0263187675935,687.4808621848542) translate(0 27.00000000000001)"/>
		<use xlink:href="#h" transform="matrix(1,0,0,1,1329.0263187675935,687.4808621848542) translate(100.65777777777778 27.00000000000001)"/>
		<use xlink:href="#i" transform="matrix(1,0,0,1,1329.0263187675935,687.4808621848542) translate(214.82666666666665 27.00000000000001)"/>
		<use xlink:href="#j" transform="matrix(1,0,0,1,1329.0263187675935,687.4808621848542) translate(0 62.55555555555557)"/>
		<use xlink:href="#k" transform="matrix(1,0,0,1,1329.0263187675935,687.4808621848542) translate(0 98.11111111111113)"/>
		<use xlink:href="#l" transform="matrix(1,0,0,1,1329.0263187675935,687.4808621848542) translate(74.16888888888889 98.11111111111113)"/>
		<use xlink:href="#m" transform="matrix(1,0,0,1,1329.0263187675935,687.4808621848542) translate(0 133.66666666666669)"/>
		<use xlink:href="#n" transform="matrix(1,0,0,1,1329.0263187675935,687.4808621848542) translate(0 169.22222222222223)"/>
		<use xlink:href="#o" transform="matrix(1,0,0,1,1329.0263187675935,687.4808621848542) translate(0 204.77777777777777)"/>
		<use xlink:href="#p" transform="matrix(1,0,0,1,1329.0263187675935,687.4808621848542) translate(143.46666666666667 204.77777777777777)"/>
		<path d="M656.9 95.9l-42.52-42.5h-85.03l-42.52 42.5 42.52 42.52h85.03z" stroke="#000" stroke-width="2" fill-opacity="0"/>
		<use xlink:href="#q" transform="matrix(1,0,0,1,486.83125703091616,53.387461265938505) translate(33.94444444444444 51.888888888888886)"/>
		<path d="M513.94 140.9l-42.52-42.52H301.36l-42.52 42.52 42.52 42.5h170.06z" stroke="#000" stroke-width="2" fill-opacity="0"/>
		<use xlink:href="#r" transform="matrix(1,0,0,1,258.8404029570245,98.3786976742449) translate(17.031111111111116 51.888888888888886)"/>
		<path d="M667.53 292.4L625 249.86H518.73L476.2 292.4l42.52 42.5h106.3z" stroke="#000" stroke-width="2" fill-opacity="0"/>
		<use xlink:href="#s" transform="matrix(1,0,0,1,476.2020630030605,249.87459574283628) translate(27.111111111111114 51.888888888888886)"/>
		<path d="M667.53 197.64L625 155.12H518.73l-42.52 42.52 42.52 42.5h106.3z" stroke="#000" stroke-width="2" fill-opacity="0"/>
		<use xlink:href="#t" transform="matrix(1,0,0,1,476.2020630030605,155.11912136890115) translate(38.73777777777778 51.888888888888886)"/>
		<path d="M824.48 140.9l-42.52-42.52h-106.3l-42.5 42.52 42.5 42.5h106.3z" stroke="#000" stroke-width="2" fill-opacity="0"/>
		<use xlink:href="#u" transform="matrix(1,0,0,1,633.1523187838078,98.3786976742449) translate(26.204444444444448 51.888888888888886)"/>
		<path d="M503.3 244.37l-42.5-42.52H312l-42.53 42.52L312 286.9h148.8z" stroke="#000" stroke-width="2" fill-opacity="0"/>
		<use xlink:href="#v" transform="matrix(1,0,0,1,269.46959698488007,201.85391384803071) translate(21.72888888888889 51.888888888888886)"/>
		<path d="M1114.45 114.4h241.4v170h-241.4z" stroke="#000" stroke-width="2" fill="#fff"/>
		<use xlink:href="#w" transform="matrix(1,0,0,1,1119.4462937558242,119.39452584335038) translate(1.259999999999991 50)"/>
		<use xlink:href="#x" transform="matrix(1,0,0,1,1119.4462937558242,119.39452584335038) translate(112.34 50)"/>
		<use xlink:href="#y" transform="matrix(1,0,0,1,1119.4462937558242,119.39452584335038) translate(153.9 50)"/>
		<use xlink:href="#z" transform="matrix(1,0,0,1,1119.4462937558242,119.39452584335038) translate(32.519999999999996 90)"/>
		<use xlink:href="#A" transform="matrix(1,0,0,1,1119.4462937558242,119.39452584335038) translate(62.8 90)"/>
		<use xlink:href="#B" transform="matrix(1,0,0,1,1119.4462937558242,119.39452584335038) translate(35.44 130)"/>
		<path d="M266.64 440.7h275.6v210h-275.6z" stroke="#000" stroke-width="2" fill="#fff"/>
		<use xlink:href="#C" transform="matrix(1,0,0,1,271.64255841918896,445.6927503594251) translate(43.879999999999995 70)"/>
		<use xlink:href="#D" transform="matrix(1,0,0,1,271.64255841918896,445.6927503594251) translate(145.12 70)"/>
		<use xlink:href="#E" transform="matrix(1,0,0,1,271.64255841918896,445.6927503594251) translate(10 110)"/>
		<use xlink:href="#F" transform="matrix(1,0,0,1,271.64255841918896,445.6927503594251) translate(138.64000000000001 110)"/>
		<use xlink:href="#G" transform="matrix(1,0,0,1,271.64255841918896,445.6927503594251) translate(220.36 110)"/>
		<use xlink:href="#H" transform="matrix(1,0,0,1,271.64255841918896,445.6927503594251) translate(76.58000000000001 150)"/>
		<path d="M665.03 440.7h275.6v210h-275.6z" stroke="#000" stroke-width="2" fill="#fff"/>
		<use xlink:href="#I" transform="matrix(1,0,0,1,670.0311925436607,445.6927503594251) translate(20.620000000000005 70)"/>
		<use xlink:href="#J" transform="matrix(1,0,0,1,670.0311925436607,445.6927503594251) translate(115.53999999999999 70)"/>
		<use xlink:href="#K" transform="matrix(1,0,0,1,670.0311925436607,445.6927503594251) translate(201.78 70)"/>
		<use xlink:href="#L" transform="matrix(1,0,0,1,670.0311925436607,445.6927503594251) translate(59.760000000000005 110)"/>
		<use xlink:href="#M" transform="matrix(1,0,0,1,670.0311925436607,445.6927503594251) translate(73.14000000000001 150)"/>
		<path d="M544.73 545.7h98.68" stroke="#000" stroke-width="3" fill="none"/>
		<path d="M544.77 547.2h-1.54v-3h1.54z"/>
		<path d="M659.18 545.7l-14.27 4.63v-9.27z" stroke="#000" stroke-width="3"/>
		<path d="M802.82 653.2v131.65h52.82" stroke="#000" stroke-width="3" fill="none"/>
		<path d="M804.32 653.23h-3v-1.54h3z"/>
		<path d="M871.4 784.85l-14.26 4.63v-9.27z" stroke="#000" stroke-width="3"/>
		<path d="M116.83 18.9h152.64v361H116.83z" fill="none"/>
		<path d="M269.47 379.9c-12.46 0-22.56-10.1-22.56-22.56V221.96c0-12.46-10.1-22.57-22.56-22.57 12.46 0 22.57-10.1 22.57-22.57V41.45C246.9 29 257 18.9 269.48 18.9" stroke="#000" stroke-width="3" fill="none"/>
		<g>
			<use xlink:href="#N" transform="matrix(1,0,0,1,121.83499027846847,23.885775895510804) translate(-99.32 166)"/>
			<use xlink:href="#O" transform="matrix(1,0,0,1,121.83499027846847,23.885775895510804) translate(-125.00000000000003 206)"/>
		</g>
		<path d="M245.02 545.7H84.75V253.15" stroke="#000" stroke-width="3" fill="none"/>
		<path d="M260.8 545.7l-14.28 4.63v-9.27z" stroke="#000" stroke-width="3"/>
		<path d="M84.75 253.2v-1.54" stroke="#000" stroke-width="3" fill="none"/>
		<path d="M1063.42 440.7h275.6v210h-275.6z" stroke="#000" stroke-width="2" fill="#fff"/>
		<g>
			<use xlink:href="#P" transform="matrix(1,0,0,1,1068.4198266681324,445.6927503594251) translate(7 50)"/>
			<use xlink:href="#J" transform="matrix(1,0,0,1,1068.4198266681324,445.6927503594251) translate(115.03999999999999 50)"/>
			<use xlink:href="#Q" transform="matrix(1,0,0,1,1068.4198266681324,445.6927503594251) translate(201.28 50)"/>
			<use xlink:href="#R" transform="matrix(1,0,0,1,1068.4198266681324,445.6927503594251) translate(12.780000000000001 90)"/>
			<use xlink:href="#S" transform="matrix(1,0,0,1,1068.4198266681324,445.6927503594251) translate(187.73999999999998 90)"/>
			<use xlink:href="#T" transform="matrix(1,0,0,1,1068.4198266681324,445.6927503594251) translate(55.77999999999999 130)"/>
			<use xlink:href="#U" transform="matrix(1,0,0,1,1068.4198266681324,445.6927503594251) translate(48.099999999999994 170)"/>
		</g>
		<path d="M943.12 545.7h98.68" stroke="#000" stroke-width="3" fill="none"/>
		<path d="M943.16 547.2h-1.54v-3h1.54z"/>
		<path d="M1057.57 545.7l-14.27 4.63v-9.27z" stroke="#000" stroke-width="3"/>
		<path d="M877.26 244.37l-42.52-42.52h-148.8l-42.53 42.52 42.53 42.52h148.8z" stroke="#000" stroke-width="2" fill-opacity="0"/>
		<g>
			<use xlink:href="#V" transform="matrix(1,0,0,1,643.4137103560855,201.85391384803071) translate(44.05777777777779 51.888888888888886)"/>
		</g>
		<path d="M1201.2 653.2v140.95h77.66" stroke="#000" stroke-width="3" fill="none"/>
		<path d="M1202.7 653.23h-3v-1.54h3z"/>
		<path d="M1294.62 794.15l-14.26 4.63v-9.27z" stroke="#000" stroke-width="3"/>
		<path d="M404.44 438.2v-20.5H921.9V199.4h170.93" stroke="#000" stroke-width="3" fill="none"/>
		<path d="M405.94 439.7h-3v-1.55h3z"/>
		<path d="M1108.6 199.4l-14.27 4.63v-9.27z" stroke="#000" stroke-width="3"/>
		<path d="M943.12 470.25h20.5v-100h216.4V306" stroke="#000" stroke-width="3" fill="none"/>
		<path d="M943.16 471.75h-1.54v-3h1.54z"/>
		<path d="M1180 290.25l4.64 14.26h-9.27z" stroke="#000" stroke-width="3"/>
		<path d="M1289.3 438.2V306" stroke="#000" stroke-width="3" fill="none"/>
		<path d="M1290.8 439.7h-3v-1.55h3z"/>
		<path d="M1289.3 290.25l4.64 14.26h-9.27z" stroke="#000" stroke-width="3"/>
		<defs>
			<path d="M37-696h79L243-77h29l134-613h87L631-77h29l124-619h79L715 0H575L450-581 327 0H188" id="W"/>
			<path d="M258-58c75 0 183-9 183-9l2 61S330 10 249 10C99 10 50-77 50-247c0-190 83-263 210-263 151 0 219 111 197 292H126c1 105 33 160 132 160zM126-279h260c0-120-39-164-126-164-86 0-134 47-134 164" id="X"/>
			<path d="M308-510c136 0 183 72 183 251 0 198-54 269-236 269C195 10 87-1 87-1v-717h75v241s75-33 146-33zM254-57c137 0 161-62 161-200 0-130-26-184-114-184-66 0-139 27-139 27v351s65 6 92 6" id="Y"/>
			<path d="M416-491l-2 65s-111-16-175-16c-62 0-108 16-108 75 0 47 23 61 122 76 132 21 180 48 180 145 0 117-74 156-195 156C174 10 62-9 62-9l4-65s114 17 165 17c82 0 126-18 126-86 0-52-26-64-126-80-122-19-176-43-176-141 0-110 89-146 180-146 75 0 181 19 181 19" id="Z"/>
			<path d="M81 0v-500h74V0H81zm0-613v-87h74v87H81" id="aa"/>
			<path d="M331-432H173v233c0 109 6 139 72 139 28 0 89-5 89-5l4 65s-66 11-101 11C134 11 98-28 98-172v-260H27v-68h71v-153h75v153h158v68" id="ab"/>
			<g id="a">
				<use transform="matrix(0.035555555555555556,0,0,0.035555555555555556,0,0)" xlink:href="#W"/>
				<use transform="matrix(0.035555555555555556,0,0,0.035555555555555556,32,0)" xlink:href="#X"/>
				<use transform="matrix(0.035555555555555556,0,0,0.035555555555555556,50.02666666666668,0)" xlink:href="#Y"/>
				<use transform="matrix(0.035555555555555556,0,0,0.035555555555555556,69.26222222222222,0)" xlink:href="#Z"/>
				<use transform="matrix(0.035555555555555556,0,0,0.035555555555555556,86.64888888888889,0)" xlink:href="#aa"/>
				<use transform="matrix(0.035555555555555556,0,0,0.035555555555555556,95.04,0)" xlink:href="#ab"/>
				<use transform="matrix(0.035555555555555556,0,0,0.035555555555555556,107.94666666666667,0)" xlink:href="#X"/>
			</g>
			<path d="M343-233H167V0H90v-696h253c151 0 221 72 221 223s-70 240-221 240zm-176-74h175c101 0 143-63 143-166 0-102-42-149-143-149H167v315" id="ac"/>
			<path d="M162 0H87v-730h75v254s84-34 154-34c138 0 169 68 169 249V0h-75v-260c0-132-15-181-105-181-67 0-143 29-143 29V0" id="ad"/>
			<path d="M265-510c151 0 213 84 213 255 0 173-44 265-213 265S50-74 50-257c0-172 57-253 215-253zm0 453c118 0 136-66 136-198 0-133-40-187-136-187-106 0-138 48-138 185 0 140 20 200 138 200" id="ae"/>
			<path d="M162 0H87v-500h75v33s84-43 155-43c137 0 168 68 168 250V0h-74v-259c0-133-15-182-106-182-66 0-143 37-143 37V0" id="af"/>
			<g id="b">
				<use transform="matrix(0.035555555555555556,0,0,0.035555555555555556,0,0)" xlink:href="#ac"/>
				<use transform="matrix(0.035555555555555556,0,0,0.035555555555555556,21.546666666666667,0)" xlink:href="#ad"/>
				<use transform="matrix(0.035555555555555556,0,0,0.035555555555555556,41.635555555555555,0)" xlink:href="#ae"/>
				<use transform="matrix(0.035555555555555556,0,0,0.035555555555555556,60.40888888888889,0)" xlink:href="#af"/>
				<use transform="matrix(0.035555555555555556,0,0,0.035555555555555556,80.60444444444444,0)" xlink:href="#X"/>
			</g>
			<path d="M433-347v246c2 32 26 42 58 46l-3 65c-60 0-92-11-118-38 0 0-90 38-185 38C98 10 49-45 49-143c0-96 49-139 152-148l158-15c7-80-16-132-87-132-73 0-191 13-191 13l-3-65s120-20 197-20c106 0 158 50 158 163zm-74 102l-148 12c-61 6-86 37-86 88 0 58 26 90 71 90 76 0 163-30 163-30v-160" id="ag"/>
			<path d="M87 222v-722h75v35s75-45 149-45c126 0 181 75 181 254 0 196-63 266-218 266-47 0-98-8-112-11v223H87zm214-663c-66 0-139 39-139 39v334c13 3 65 11 108 11 110 0 146-55 146-201 0-135-43-183-115-183" id="ah"/>
			<g id="c">
				<use transform="matrix(0.035555555555555556,0,0,0.035555555555555556,0,0)" xlink:href="#ag"/>
				<use transform="matrix(0.035555555555555556,0,0,0.035555555555555556,18.56,0)" xlink:href="#ah"/>
				<use transform="matrix(0.035555555555555556,0,0,0.035555555555555556,37.83111111111111,0)" xlink:href="#ah"/>
			</g>
			<g id="d">
				<use transform="matrix(0.035555555555555556,0,0,0.035555555555555556,0,0)" xlink:href="#W"/>
				<use transform="matrix(0.035555555555555556,0,0,0.035555555555555556,32,0)" xlink:href="#X"/>
				<use transform="matrix(0.035555555555555556,0,0,0.035555555555555556,50.02666666666668,0)" xlink:href="#Y"/>
			</g>
			<path d="M87 0v-500h75v66s77-58 174-76v78c-94 18-174 69-174 69V0H87" id="ai"/>
			<g id="e">
				<use transform="matrix(0.035555555555555556,0,0,0.035555555555555556,0,0)" xlink:href="#Z"/>
				<use transform="matrix(0.035555555555555556,0,0,0.035555555555555556,17.386666666666667,0)" xlink:href="#ab"/>
				<use transform="matrix(0.035555555555555556,0,0,0.035555555555555556,30.293333333333333,0)" xlink:href="#ae"/>
				<use transform="matrix(0.035555555555555556,0,0,0.035555555555555556,49.06666666666667,0)" xlink:href="#ai"/>
				<use transform="matrix(0.035555555555555556,0,0,0.035555555555555556,61.724444444444444,0)" xlink:href="#X"/>
			</g>
			<path d="M29 0l190-696h169L575-1h-76l-53-174H156L106 0H29zm248-625L174-249h256L327-625h-50" id="aj"/>
			<path d="M456-700V0h-75v-33s-77 43-152 43C132 10 50-32 50-248c0-175 56-262 209-262 43 0 107 10 122 13v-203h75zM239-59c67 0 142-37 142-37v-335c-15-2-78-11-118-11-105 0-138 65-138 196 0 160 55 187 114 187" id="ak"/>
			<path d="M397-500h74V0h-74v-32s-78 42-148 42C109 10 80-54 80-239v-261h74v260c0 138 12 183 106 183 66 0 137-37 137-37v-406" id="al"/>
			<g id="f">
				<use transform="matrix(0.035555555555555556,0,0,0.035555555555555556,0,0)" xlink:href="#aj"/>
				<use transform="matrix(0.035555555555555556,0,0,0.035555555555555556,21.475555555555555,0)" xlink:href="#ai"/>
				<use transform="matrix(0.035555555555555556,0,0,0.035555555555555556,34.13333333333333,0)" xlink:href="#ak"/>
				<use transform="matrix(0.035555555555555556,0,0,0.035555555555555556,53.44,0)" xlink:href="#al"/>
				<use transform="matrix(0.035555555555555556,0,0,0.035555555555555556,73.31555555555556,0)" xlink:href="#aa"/>
				<use transform="matrix(0.035555555555555556,0,0,0.035555555555555556,81.70666666666666,0)" xlink:href="#af"/>
				<use transform="matrix(0.035555555555555556,0,0,0.035555555555555556,101.90222222222222,0)" xlink:href="#ae"/>
			</g>
			<path d="M90 0v-696h134l201 585 202-585h133V0h-77v-606h-14L467-25h-85L181-606h-14V0H90" id="am"/>
			<path d="M27-500h81l122 196 122-196h82L277-250 434 0h-82L230-195 109 0H27l156-250" id="an"/>
			<g id="g">
				<use transform="matrix(0.035555555555555556,0,0,0.035555555555555556,0,0)" xlink:href="#am"/>
				<use transform="matrix(0.035555555555555556,0,0,0.035555555555555556,30.22222222222222,0)" xlink:href="#aa"/>
				<use transform="matrix(0.035555555555555556,0,0,0.035555555555555556,38.61333333333334,0)" xlink:href="#an"/>
				<use transform="matrix(0.035555555555555556,0,0,0.035555555555555556,54.968888888888884,0)" xlink:href="#X"/>
				<use transform="matrix(0.035555555555555556,0,0,0.035555555555555556,72.99555555555555,0)" xlink:href="#ak"/>
			</g>
			<path d="M488 0L363-263H167V0H90v-696h256c149 0 221 62 221 212 0 107-38 174-127 201L573 0h-85zm0-484c0-96-45-139-142-139H167v287h180c106 0 141-59 141-148" id="ao"/>
			<path d="M84 0v-718h74V0H84" id="ap"/>
			<path d="M24-500h75L224-72h34l125-428h75L250 222h-75L239 0h-73" id="aq"/>
			<g id="h">
				<use transform="matrix(0.035555555555555556,0,0,0.035555555555555556,0,0)" xlink:href="#ao"/>
				<use transform="matrix(0.035555555555555556,0,0,0.035555555555555556,22.186666666666667,0)" xlink:href="#X"/>
				<use transform="matrix(0.035555555555555556,0,0,0.035555555555555556,40.21333333333334,0)" xlink:href="#ag"/>
				<use transform="matrix(0.035555555555555556,0,0,0.035555555555555556,58.77333333333334,0)" xlink:href="#ap"/>
				<use transform="matrix(0.035555555555555556,0,0,0.035555555555555556,67.37777777777778,0)" xlink:href="#aa"/>
				<use transform="matrix(0.035555555555555556,0,0,0.035555555555555556,75.7688888888889,0)" xlink:href="#ab"/>
				<use transform="matrix(0.035555555555555556,0,0,0.035555555555555556,88.67555555555556,0)" xlink:href="#aq"/>
			</g>
			<path d="M337 0H90v-696h247c200 0 256 140 256 337C593-160 540 0 337 0zm176-359c0-146-33-264-176-264H166v550h171c143 0 176-139 176-286" id="ar"/>
			<path d="M24-500h78L222-64h37l122-436h76L315 0H165" id="as"/>
			<path d="M257-510c46 0 136 15 136 15l-2 65s-80-9-118-9c-115 0-146 48-146 180 0 146 23 199 146 199 38 0 119-9 119-9l3 65s-94 14-139 14C96 10 50-63 50-259c0-181 58-251 207-251" id="at"/>
			<g id="i">
				<use transform="matrix(0.035555555555555556,0,0,0.035555555555555556,0,0)" xlink:href="#ar"/>
				<use transform="matrix(0.035555555555555556,0,0,0.035555555555555556,22.826666666666668,0)" xlink:href="#X"/>
				<use transform="matrix(0.035555555555555556,0,0,0.035555555555555556,40.85333333333334,0)" xlink:href="#as"/>
				<use transform="matrix(0.035555555555555556,0,0,0.035555555555555556,57.99111111111112,0)" xlink:href="#aa"/>
				<use transform="matrix(0.035555555555555556,0,0,0.035555555555555556,66.38222222222223,0)" xlink:href="#at"/>
				<use transform="matrix(0.035555555555555556,0,0,0.035555555555555556,81.92,0)" xlink:href="#X"/>
				<use transform="matrix(0.035555555555555556,0,0,0.035555555555555556,99.94666666666667,0)" xlink:href="#Z"/>
			</g>
			<g id="j">
				<use transform="matrix(0.035555555555555556,0,0,0.035555555555555556,0,0)" xlink:href="#am"/>
				<use transform="matrix(0.035555555555555556,0,0,0.035555555555555556,30.22222222222222,0)" xlink:href="#aa"/>
				<use transform="matrix(0.035555555555555556,0,0,0.035555555555555556,38.61333333333334,0)" xlink:href="#at"/>
				<use transform="matrix(0.035555555555555556,0,0,0.035555555555555556,54.151111111111106,0)" xlink:href="#ai"/>
				<use transform="matrix(0.035555555555555556,0,0,0.035555555555555556,66.80888888888889,0)" xlink:href="#ae"/>
				<use transform="matrix(0.035555555555555556,0,0,0.035555555555555556,85.5822222222222,0)" xlink:href="#at"/>
				<use transform="matrix(0.035555555555555556,0,0,0.035555555555555556,101.11999999999999,0)" xlink:href="#ae"/>
				<use transform="matrix(0.035555555555555556,0,0,0.035555555555555556,119.89333333333332,0)" xlink:href="#af"/>
				<use transform="matrix(0.035555555555555556,0,0,0.035555555555555556,140.08888888888887,0)" xlink:href="#ab"/>
				<use transform="matrix(0.035555555555555556,0,0,0.035555555555555556,152.99555555555557,0)" xlink:href="#ai"/>
				<use transform="matrix(0.035555555555555556,0,0,0.035555555555555556,165.6533333333333,0)" xlink:href="#ae"/>
				<use transform="matrix(0.035555555555555556,0,0,0.035555555555555556,184.42666666666665,0)" xlink:href="#ap"/>
				<use transform="matrix(0.035555555555555556,0,0,0.035555555555555556,193.0311111111111,0)" xlink:href="#ap"/>
				<use transform="matrix(0.035555555555555556,0,0,0.035555555555555556,201.63555555555556,0)" xlink:href="#X"/>
				<use transform="matrix(0.035555555555555556,0,0,0.035555555555555556,219.66222222222223,0)" xlink:href="#ai"/>
				<use transform="matrix(0.035555555555555556,0,0,0.035555555555555556,232.32,0)" xlink:href="#Z"/>
			</g>
			<path d="M-4-622v-74h500v74H285V0h-76v-622H-4" id="au"/>
			<g id="k">
				<use transform="matrix(0.035555555555555556,0,0,0.035555555555555556,0,0)" xlink:href="#au"/>
				<use transform="matrix(0.035555555555555556,0,0,0.035555555555555556,17.493333333333332,0)" xlink:href="#X"/>
				<use transform="matrix(0.035555555555555556,0,0,0.035555555555555556,35.519999999999996,0)" xlink:href="#Z"/>
				<use transform="matrix(0.035555555555555556,0,0,0.035555555555555556,52.906666666666666,0)" xlink:href="#ab"/>
			</g>
			<path d="M165-432V0H91v-432H28v-68h63v-45c0-144 36-182 134-182 35 0 101 7 101 7l-1 62s-56-2-85-2c-56 0-75 24-75 116v44h146v68H165" id="av"/>
			<path d="M162 0H87v-500h75v34c-4-5 120-52 180-41 41 7 72 18 92 42 29-11 112-45 181-45 136 0 169 65 169 250V0h-75v-237c0-153-10-204-105-204-68 0-138 36-140 37 21 98 9 281 12 404h-75v-258c0-138-14-183-105-183-67 0-134 37-134 37V0" id="aw"/>
			<g id="l">
				<use transform="matrix(0.035555555555555556,0,0,0.035555555555555556,0,0)" xlink:href="#ac"/>
				<use transform="matrix(0.035555555555555556,0,0,0.035555555555555556,21.546666666666667,0)" xlink:href="#ap"/>
				<use transform="matrix(0.035555555555555556,0,0,0.035555555555555556,30.151111111111113,0)" xlink:href="#ag"/>
				<use transform="matrix(0.035555555555555556,0,0,0.035555555555555556,48.71111111111111,0)" xlink:href="#ab"/>
				<use transform="matrix(0.035555555555555556,0,0,0.035555555555555556,61.617777777777775,0)" xlink:href="#av"/>
				<use transform="matrix(0.035555555555555556,0,0,0.035555555555555556,73.49333333333334,0)" xlink:href="#ae"/>
				<use transform="matrix(0.035555555555555556,0,0,0.035555555555555556,92.26666666666665,0)" xlink:href="#ai"/>
				<use transform="matrix(0.035555555555555556,0,0,0.035555555555555556,104.92444444444443,0)" xlink:href="#aw"/>
				<use transform="matrix(0.035555555555555556,0,0,0.035555555555555556,135.64444444444445,0)" xlink:href="#Z"/>
			</g>
			<path d="M28-500h75L203-68h16l120-422h79L537-68h16l101-432h75L610 0H483L378-391 271 0H146" id="ax"/>
			<g id="m">
				<use transform="matrix(0.035555555555555556,0,0,0.035555555555555556,0,0)" xlink:href="#ac"/>
				<use transform="matrix(0.035555555555555556,0,0,0.035555555555555556,21.546666666666667,0)" xlink:href="#ae"/>
				<use transform="matrix(0.035555555555555556,0,0,0.035555555555555556,40.32,0)" xlink:href="#ax"/>
				<use transform="matrix(0.035555555555555556,0,0,0.035555555555555556,67.23555555555555,0)" xlink:href="#X"/>
				<use transform="matrix(0.035555555555555556,0,0,0.035555555555555556,85.26222222222222,0)" xlink:href="#ai"/>
				<use transform="matrix(0.035555555555555556,0,0,0.035555555555555556,97.92,0)" xlink:href="#av"/>
				<use transform="matrix(0.035555555555555556,0,0,0.035555555555555556,109.79555555555555,0)" xlink:href="#al"/>
				<use transform="matrix(0.035555555555555556,0,0,0.035555555555555556,129.67111111111112,0)" xlink:href="#ap"/>
			</g>
			<path d="M162 0H87v-718h75v419l77-4 149-197h84L305-270 475 0h-85L240-229l-78 4V0" id="ay"/>
			<g id="n">
				<use transform="matrix(0.035555555555555556,0,0,0.035555555555555556,0,0)" xlink:href="#ax"/>
				<use transform="matrix(0.035555555555555556,0,0,0.035555555555555556,26.915555555555557,0)" xlink:href="#ae"/>
				<use transform="matrix(0.035555555555555556,0,0,0.035555555555555556,45.68888888888889,0)" xlink:href="#ai"/>
				<use transform="matrix(0.035555555555555556,0,0,0.035555555555555556,58.346666666666664,0)" xlink:href="#ay"/>
				<use transform="matrix(0.035555555555555556,0,0,0.035555555555555556,76.01777777777778,0)" xlink:href="#Z"/>
				<use transform="matrix(0.035555555555555556,0,0,0.035555555555555556,93.40444444444445,0)" xlink:href="#ab"/>
				<use transform="matrix(0.035555555555555556,0,0,0.035555555555555556,106.31111111111112,0)" xlink:href="#ag"/>
				<use transform="matrix(0.035555555555555556,0,0,0.035555555555555556,124.87111111111113,0)" xlink:href="#ab"/>
				<use transform="matrix(0.035555555555555556,0,0,0.035555555555555556,137.77777777777777,0)" xlink:href="#aa"/>
				<use transform="matrix(0.035555555555555556,0,0,0.035555555555555556,146.1688888888889,0)" xlink:href="#ae"/>
				<use transform="matrix(0.035555555555555556,0,0,0.035555555555555556,164.94222222222223,0)" xlink:href="#af"/>
				<use transform="matrix(0.035555555555555556,0,0,0.035555555555555556,185.13777777777779,0)" xlink:href="#Z"/>
			</g>
			<path d="M471 0H90v-696h77v622h304V0" id="az"/>
			<g id="o">
				<use transform="matrix(0.035555555555555556,0,0,0.035555555555555556,0,0)" xlink:href="#az"/>
				<use transform="matrix(0.035555555555555556,0,0,0.035555555555555556,18.24,0)" xlink:href="#aa"/>
				<use transform="matrix(0.035555555555555556,0,0,0.035555555555555556,26.63111111111111,0)" xlink:href="#at"/>
				<use transform="matrix(0.035555555555555556,0,0,0.035555555555555556,42.16888888888889,0)" xlink:href="#X"/>
				<use transform="matrix(0.035555555555555556,0,0,0.035555555555555556,60.19555555555556,0)" xlink:href="#af"/>
				<use transform="matrix(0.035555555555555556,0,0,0.035555555555555556,80.39111111111112,0)" xlink:href="#Z"/>
				<use transform="matrix(0.035555555555555556,0,0,0.035555555555555556,97.77777777777777,0)" xlink:href="#X"/>
				<use transform="matrix(0.035555555555555556,0,0,0.035555555555555556,115.80444444444446,0)" xlink:href="#ak"/>
			</g>
			<path d="M475-687l-7 70s-138-16-196-16c-98 0-151 32-151 110 0 91 48 106 170 133 138 31 199 65 199 189C490-51 405 9 266 9 190 9 53-12 53-12l8-70s133 17 204 17c98 0 147-37 147-133 0-78-41-99-154-122-143-30-214-65-214-201 0-130 87-186 228-186 77 0 203 20 203 20" id="aA"/>
			<g id="p">
				<use transform="matrix(0.035555555555555556,0,0,0.035555555555555556,0,0)" xlink:href="#aA"/>
				<use transform="matrix(0.035555555555555556,0,0,0.035555555555555556,18.986666666666668,0)" xlink:href="#ae"/>
				<use transform="matrix(0.035555555555555556,0,0,0.035555555555555556,37.760000000000005,0)" xlink:href="#av"/>
				<use transform="matrix(0.035555555555555556,0,0,0.035555555555555556,49.63555555555556,0)" xlink:href="#ab"/>
				<use transform="matrix(0.035555555555555556,0,0,0.035555555555555556,62.54222222222223,0)" xlink:href="#ax"/>
				<use transform="matrix(0.035555555555555556,0,0,0.035555555555555556,89.45777777777778,0)" xlink:href="#ag"/>
				<use transform="matrix(0.035555555555555556,0,0,0.035555555555555556,108.01777777777778,0)" xlink:href="#ai"/>
				<use transform="matrix(0.035555555555555556,0,0,0.035555555555555556,120.67555555555556,0)" xlink:href="#X"/>
			</g>
			<g id="q">
				<use transform="matrix(0.035555555555555556,0,0,0.035555555555555556,0,0)" xlink:href="#aj"/>
				<use transform="matrix(0.035555555555555556,0,0,0.035555555555555556,21.475555555555555,0)" xlink:href="#ai"/>
				<use transform="matrix(0.035555555555555556,0,0,0.035555555555555556,34.13333333333333,0)" xlink:href="#ab"/>
				<use transform="matrix(0.035555555555555556,0,0,0.035555555555555556,47.04,0)" xlink:href="#aa"/>
				<use transform="matrix(0.035555555555555556,0,0,0.035555555555555556,55.431111111111115,0)" xlink:href="#Z"/>
				<use transform="matrix(0.035555555555555556,0,0,0.035555555555555556,72.81777777777778,0)" xlink:href="#ab"/>
				<use transform="matrix(0.035555555555555556,0,0,0.035555555555555556,85.72444444444444,0)" xlink:href="#Z"/>
			</g>
			<path d="M90 0v-696h420v73H166v235h284v72H166v243h344V0H90" id="aB"/>
			<g id="r">
				<use transform="matrix(0.035555555555555556,0,0,0.035555555555555556,0,0)" xlink:href="#aB"/>
				<use transform="matrix(0.035555555555555556,0,0,0.035555555555555556,20.053333333333335,0)" xlink:href="#af"/>
				<use transform="matrix(0.035555555555555556,0,0,0.035555555555555556,40.24888888888889,0)" xlink:href="#ab"/>
				<use transform="matrix(0.035555555555555556,0,0,0.035555555555555556,53.155555555555544,0)" xlink:href="#ai"/>
				<use transform="matrix(0.035555555555555556,0,0,0.035555555555555556,65.81333333333333,0)" xlink:href="#X"/>
				<use transform="matrix(0.035555555555555556,0,0,0.035555555555555556,83.84,0)" xlink:href="#ah"/>
				<use transform="matrix(0.035555555555555556,0,0,0.035555555555555556,103.11111111111111,0)" xlink:href="#ai"/>
				<use transform="matrix(0.035555555555555556,0,0,0.035555555555555556,115.7688888888889,0)" xlink:href="#X"/>
				<use transform="matrix(0.035555555555555556,0,0,0.035555555555555556,133.79555555555555,0)" xlink:href="#af"/>
				<use transform="matrix(0.035555555555555556,0,0,0.035555555555555556,153.9911111111111,0)" xlink:href="#X"/>
				<use transform="matrix(0.035555555555555556,0,0,0.035555555555555556,172.01777777777778,0)" xlink:href="#al"/>
				<use transform="matrix(0.035555555555555556,0,0,0.035555555555555556,191.89333333333335,0)" xlink:href="#ai"/>
				<use transform="matrix(0.035555555555555556,0,0,0.035555555555555556,204.5511111111111,0)" xlink:href="#Z"/>
			</g>
			<g id="s">
				<use transform="matrix(0.035555555555555556,0,0,0.035555555555555556,0,0)" xlink:href="#au"/>
				<use transform="matrix(0.035555555555555556,0,0,0.035555555555555556,17.493333333333332,0)" xlink:href="#X"/>
				<use transform="matrix(0.035555555555555556,0,0,0.035555555555555556,35.519999999999996,0)" xlink:href="#ag"/>
				<use transform="matrix(0.035555555555555556,0,0,0.035555555555555556,54.08,0)" xlink:href="#at"/>
				<use transform="matrix(0.035555555555555556,0,0,0.035555555555555556,69.61777777777777,0)" xlink:href="#ad"/>
				<use transform="matrix(0.035555555555555556,0,0,0.035555555555555556,89.70666666666666,0)" xlink:href="#X"/>
				<use transform="matrix(0.035555555555555556,0,0,0.035555555555555556,107.73333333333333,0)" xlink:href="#ai"/>
				<use transform="matrix(0.035555555555555556,0,0,0.035555555555555556,120.39111111111112,0)" xlink:href="#Z"/>
			</g>
			<g id="t">
				<use transform="matrix(0.035555555555555556,0,0,0.035555555555555556,0,0)" xlink:href="#am"/>
				<use transform="matrix(0.035555555555555556,0,0,0.035555555555555556,30.22222222222222,0)" xlink:href="#ag"/>
				<use transform="matrix(0.035555555555555556,0,0,0.035555555555555556,48.78222222222222,0)" xlink:href="#ay"/>
				<use transform="matrix(0.035555555555555556,0,0,0.035555555555555556,66.45333333333332,0)" xlink:href="#X"/>
				<use transform="matrix(0.035555555555555556,0,0,0.035555555555555556,84.47999999999999,0)" xlink:href="#ai"/>
				<use transform="matrix(0.035555555555555556,0,0,0.035555555555555556,97.13777777777777,0)" xlink:href="#Z"/>
			</g>
			<g id="u">
				<use transform="matrix(0.035555555555555556,0,0,0.035555555555555556,0,0)" xlink:href="#aA"/>
				<use transform="matrix(0.035555555555555556,0,0,0.035555555555555556,18.986666666666668,0)" xlink:href="#ab"/>
				<use transform="matrix(0.035555555555555556,0,0,0.035555555555555556,31.893333333333334,0)" xlink:href="#al"/>
				<use transform="matrix(0.035555555555555556,0,0,0.035555555555555556,51.76888888888889,0)" xlink:href="#ak"/>
				<use transform="matrix(0.035555555555555556,0,0,0.035555555555555556,71.07555555555555,0)" xlink:href="#X"/>
				<use transform="matrix(0.035555555555555556,0,0,0.035555555555555556,89.10222222222222,0)" xlink:href="#af"/>
				<use transform="matrix(0.035555555555555556,0,0,0.035555555555555556,109.29777777777778,0)" xlink:href="#ab"/>
				<use transform="matrix(0.035555555555555556,0,0,0.035555555555555556,122.20444444444445,0)" xlink:href="#Z"/>
			</g>
			<g id="v">
				<use transform="matrix(0.035555555555555556,0,0,0.035555555555555556,0,0)" xlink:href="#ao"/>
				<use transform="matrix(0.035555555555555556,0,0,0.035555555555555556,22.186666666666667,0)" xlink:href="#X"/>
				<use transform="matrix(0.035555555555555556,0,0,0.035555555555555556,40.21333333333334,0)" xlink:href="#Z"/>
				<use transform="matrix(0.035555555555555556,0,0,0.035555555555555556,57.60000000000001,0)" xlink:href="#X"/>
				<use transform="matrix(0.035555555555555556,0,0,0.035555555555555556,75.62666666666668,0)" xlink:href="#ag"/>
				<use transform="matrix(0.035555555555555556,0,0,0.035555555555555556,94.18666666666668,0)" xlink:href="#ai"/>
				<use transform="matrix(0.035555555555555556,0,0,0.035555555555555556,106.84444444444446,0)" xlink:href="#at"/>
				<use transform="matrix(0.035555555555555556,0,0,0.035555555555555556,122.38222222222224,0)" xlink:href="#ad"/>
				<use transform="matrix(0.035555555555555556,0,0,0.035555555555555556,142.47111111111113,0)" xlink:href="#X"/>
				<use transform="matrix(0.035555555555555556,0,0,0.035555555555555556,160.4977777777778,0)" xlink:href="#ai"/>
				<use transform="matrix(0.035555555555555556,0,0,0.035555555555555556,173.15555555555557,0)" xlink:href="#Z"/>
			</g>
			<path d="M491-83l3 70S383 10 304 10C97 10 51-117 51-346c0-235 49-360 253-360 91 0 191 23 191 23l-4 69s-109-17-179-17c-155 0-182 93-182 285 0 188 26 281 184 281 62 0 177-18 177-18" id="aC"/>
			<g id="w">
				<use transform="matrix(0.04,0,0,0.04,0,0)" xlink:href="#aC"/>
				<use transform="matrix(0.04,0,0,0.04,21.44,0)" xlink:href="#ad"/>
				<use transform="matrix(0.04,0,0,0.04,44.04000000000001,0)" xlink:href="#X"/>
				<use transform="matrix(0.04,0,0,0.04,64.32000000000001,0)" xlink:href="#at"/>
				<use transform="matrix(0.04,0,0,0.04,81.80000000000001,0)" xlink:href="#ay"/>
			</g>
			<g id="x">
				<use transform="matrix(0.04,0,0,0.04,0,0)" xlink:href="#aa"/>
				<use transform="matrix(0.04,0,0,0.04,9.44,0)" xlink:href="#af"/>
			</g>
			<g id="y">
				<use transform="matrix(0.04,0,0,0.04,0,0)" xlink:href="#ax"/>
				<use transform="matrix(0.04,0,0,0.04,30.28,0)" xlink:href="#aa"/>
				<use transform="matrix(0.04,0,0,0.04,39.72,0)" xlink:href="#ab"/>
				<use transform="matrix(0.04,0,0,0.04,54.239999999999995,0)" xlink:href="#ad"/>
			</g>
			<use transform="matrix(0.04,0,0,0.04,0,0)" xlink:href="#ag" id="z"/>
			<path d="M482-679l-9 105s-140-16-198-16c-82 0-123 26-123 82 0 59 34 74 150 107 144 42 195 81 195 202 0 144-96 210-236 210-76 0-211-26-211-26l12-105s127 17 198 17c82 0 119-26 119-93 0-54-29-75-132-101C97-336 35-382 35-506c0-132 91-198 240-198 77 0 207 25 207 25" id="aD"/>
			<path d="M331-396H196v204c0 69 2 95 52 95 28 0 81-3 81-3l5 98s-67 14-102 14C117 12 82-32 82-176v-220H19v-103h63v-145h114v145h135v103" id="aE"/>
			<path d="M372-499h114V0H372v-25s-78 36-132 36C96 11 67-63 67-238v-261h114v260c0 106 6 147 82 147 44 0 109-23 109-23v-384" id="aF"/>
			<path d="M475-700V0H360v-24s-71 35-130 35C97 11 40-64 40-253c0-179 66-258 208-258 39 0 107 12 112 13v-202h115zM248-95c49 0 112-22 112-22v-281c-5 0-62-9-104-9-69 0-100 45-100 155 0 121 31 157 92 157" id="aG"/>
			<path d="M267-93c79 0 184-9 184-9l2 89S339 11 250 11C99 11 40-68 40-244c0-182 78-267 217-267 142 0 213 73 213 228l-8 82H155c1 73 31 108 112 108zM155-290h202c0-87-29-119-100-119s-102 36-102 119" id="aH"/>
			<path d="M188 0H74v-499h114v25s79-37 134-37c139 0 174 82 174 250V0H382v-260c0-95-12-144-82-144-44 0-112 23-112 23V0" id="aI"/>
			<g id="A">
				<use transform="matrix(0.04,0,0,0.04,0,0)" xlink:href="#aD"/>
				<use transform="matrix(0.04,0,0,0.04,21.240000000000002,0)" xlink:href="#aE"/>
				<use transform="matrix(0.04,0,0,0.04,35.400000000000006,0)" xlink:href="#aF"/>
				<use transform="matrix(0.04,0,0,0.04,57.80000000000001,0)" xlink:href="#aG"/>
				<use transform="matrix(0.04,0,0,0.04,79.72000000000001,0)" xlink:href="#aH"/>
				<use transform="matrix(0.04,0,0,0.04,100.00000000000001,0)" xlink:href="#aI"/>
				<use transform="matrix(0.04,0,0,0.04,122.52,0)" xlink:href="#aE"/>
			</g>
			<path d="M-8-579v-113h500v113H302V0H184v-579H-8" id="aJ"/>
			<path d="M250-511c54 0 152 19 152 19l-4 99s-79-9-117-9c-102 0-125 38-125 146 0 120 21 159 126 159 38 0 117-9 117-9l3 99S300 11 247 11C95 11 40-66 40-256c0-179 61-255 210-255" id="aK"/>
			<path d="M188 0H74v-710h114v228s79-29 134-29c139 0 174 82 174 249V0H381v-261c0-94-11-143-81-143-45 0-112 17-112 17V0" id="aL"/>
			<path d="M72 0v-499h114V0H72zm0-580v-121h114v121H72" id="aM"/>
			<path d="M448-342v206c1 35 12 45 41 50l-4 97c-78 0-104-12-134-35 0 0-86 35-163 35C93 11 43-50 43-149c0-107 59-144 167-152l124-10c6-55-12-90-62-90-74 0-193 9-193 9l-4-97s129-22 203-22c110 0 170 46 170 169zM334-222c-71 8-176-12-176 70 0 42 18 65 51 65 53 0 125-20 125-20v-115" id="aN"/>
			<g id="B">
				<use transform="matrix(0.04,0,0,0.04,0,0)" xlink:href="#aJ"/>
				<use transform="matrix(0.04,0,0,0.04,19.36,0)" xlink:href="#aH"/>
				<use transform="matrix(0.04,0,0,0.04,39.64,0)" xlink:href="#aK"/>
				<use transform="matrix(0.04,0,0,0.04,57.08,0)" xlink:href="#aL"/>
				<use transform="matrix(0.04,0,0,0.04,79.56,0)" xlink:href="#aM"/>
				<use transform="matrix(0.04,0,0,0.04,89.84,0)" xlink:href="#aK"/>
				<use transform="matrix(0.04,0,0,0.04,107.28,0)" xlink:href="#aM"/>
				<use transform="matrix(0.04,0,0,0.04,117.56,0)" xlink:href="#aN"/>
				<use transform="matrix(0.04,0,0,0.04,138.6,0)" xlink:href="#aI"/>
			</g>
			<path d="M90-696h250c130 0 206 51 206 172 0 95-33 140-88 166 62 21 109 62 109 162C567-49 483 0 353 0H90v-696zm255 378H166v247c149-8 322 42 322-129 0-107-90-118-143-118zm-8-307H166v237h178c87 0 123-43 123-126 0-79-42-111-130-111" id="aO"/>
			<path d="M262 239C104 239 47 204 47 84c0-58 27-85 79-124-18-12-27-38-27-69 0-19 33-79 33-79-41-19-78-58-78-151 0-123 75-171 186-171 50 0 104 13 104 13l146-3v64h-90c18 19 31 44 31 97 0 149-98 180-243 165 0 0-18 44-18 57 0 40 9 46 121 46 143 0 194 28 194 147 0 116-82 163-223 163zM286-5c-36 0-109-5-109-5-41 31-56 49-56 88 0 69 29 94 142 94 101 0 146-27 146-93 0-76-33-84-123-84zm-49-229c84 0 119-26 119-105 0-86-32-106-117-106-74 0-110 27-110 106 0 72 25 105 108 105" id="aP"/>
			<g id="C">
				<use transform="matrix(0.04,0,0,0.04,0,0)" xlink:href="#aO"/>
				<use transform="matrix(0.04,0,0,0.04,24.72,0)" xlink:href="#ai"/>
				<use transform="matrix(0.04,0,0,0.04,38.96,0)" xlink:href="#aa"/>
				<use transform="matrix(0.04,0,0,0.04,48.4,0)" xlink:href="#af"/>
				<use transform="matrix(0.04,0,0,0.04,71.12,0)" xlink:href="#aP"/>
			</g>
			<g id="D">
				<use transform="matrix(0.04,0,0,0.04,0,0)" xlink:href="#aq"/>
				<use transform="matrix(0.04,0,0,0.04,19.28,0)" xlink:href="#ae"/>
				<use transform="matrix(0.04,0,0,0.04,40.400000000000006,0)" xlink:href="#al"/>
				<use transform="matrix(0.04,0,0,0.04,62.76,0)" xlink:href="#ai"/>
			</g>
			<path d="M93-6v-494h74V-5c0 123-33 167-166 235l-33-63C70 109 93 84 93-6zm0-610v-88h74v88H93" id="aQ"/>
			<g id="E">
				<use transform="matrix(0.04,0,0,0.04,0,0)" xlink:href="#ah"/>
				<use transform="matrix(0.04,0,0,0.04,21.68,0)" xlink:href="#ai"/>
				<use transform="matrix(0.04,0,0,0.04,35.92,0)" xlink:href="#ae"/>
				<use transform="matrix(0.04,0,0,0.04,57.04000000000001,0)" xlink:href="#aQ"/>
				<use transform="matrix(0.04,0,0,0.04,66.96000000000001,0)" xlink:href="#X"/>
				<use transform="matrix(0.04,0,0,0.04,87.24,0)" xlink:href="#at"/>
				<use transform="matrix(0.04,0,0,0.04,104.72000000000003,0)" xlink:href="#ab"/>
			</g>
			<g id="F">
				<use transform="matrix(0.04,0,0,0.04,0,0)" xlink:href="#aa"/>
				<use transform="matrix(0.04,0,0,0.04,9.44,0)" xlink:href="#ak"/>
				<use transform="matrix(0.04,0,0,0.04,31.159999999999997,0)" xlink:href="#X"/>
				<use transform="matrix(0.04,0,0,0.04,51.44,0)" xlink:href="#ag"/>
			</g>
			<g id="G">
				<use transform="matrix(0.04,0,0,0.04,0,0)" xlink:href="#ab"/>
				<use transform="matrix(0.04,0,0,0.04,14.52,0)" xlink:href="#ae"/>
			</g>
			<path d="M23 0l165-692h231L582 0H464l-38-136H175L141 0H23zm256-584l-79 335h203l-77-335h-47" id="aR"/>
			<path d="M13-499h119l95 404h30l97-404h116L342 0H140" id="aS"/>
			<path d="M75 0v-692h118V0H75" id="aT"/>
			<g id="H">
				<use transform="matrix(0.04,0,0,0.04,0,0)" xlink:href="#aR"/>
				<use transform="matrix(0.04,0,0,0.04,24.2,0)" xlink:href="#aG"/>
				<use transform="matrix(0.04,0,0,0.04,46.12,0)" xlink:href="#aS"/>
				<use transform="matrix(0.04,0,0,0.04,65.44,0)" xlink:href="#aT"/>
				<use transform="matrix(0.04,0,0,0.04,76.16,0)" xlink:href="#aI"/>
				<use transform="matrix(0.04,0,0,0.04,98.67999999999998,0)" xlink:href="#aE"/>
			</g>
			<g id="I">
				<use transform="matrix(0.04,0,0,0.04,0,0)" xlink:href="#aA"/>
				<use transform="matrix(0.04,0,0,0.04,21.36,0)" xlink:href="#ab"/>
				<use transform="matrix(0.04,0,0,0.04,35.879999999999995,0)" xlink:href="#ag"/>
				<use transform="matrix(0.04,0,0,0.04,56.75999999999999,0)" xlink:href="#ai"/>
				<use transform="matrix(0.04,0,0,0.04,70.99999999999999,0)" xlink:href="#ab"/>
			</g>
			<g id="J">
				<use transform="matrix(0.04,0,0,0.04,0,0)" xlink:href="#ax"/>
				<use transform="matrix(0.04,0,0,0.04,30.28,0)" xlink:href="#aa"/>
				<use transform="matrix(0.04,0,0,0.04,39.72,0)" xlink:href="#ab"/>
				<use transform="matrix(0.04,0,0,0.04,54.239999999999995,0)" xlink:href="#ad"/>
			</g>
			<g id="K">
				<use transform="matrix(0.04,0,0,0.04,0,0)" xlink:href="#ag"/>
				<use transform="matrix(0.04,0,0,0.04,20.88,0)" xlink:href="#af"/>
			</g>
			<path d="M16-499h122l94 168 95-168h122L306-249 449 0H327l-95-167L138 0H16l142-249" id="aU"/>
			<path d="M187-472c-1-4 100-41 139-38 51 3 87 16 112 42 44-17 115-43 174-43 136 0 174 75 174 250V0H672v-216c0-135-2-188-82-188-49 0-108 24-109 25 12 97 5 265 7 379H374v-257c0-106-10-147-82-147-44 0-104 23-104 23V0H74v-499h113v27" id="aV"/>
			<path d="M74 214v-713h114v27s68-39 125-39c130 0 192 69 192 256C505-4 384 31 188 2v212H74zm218-620c-44 0-104 26-104 26v281c4 1 52 7 85 7 90 0 116-44 116-163 0-113-37-151-97-151" id="aW"/>
			<path d="M73 0v-706h114V0H73" id="aX"/>
			<g id="L">
				<use transform="matrix(0.04,0,0,0.04,0,0)" xlink:href="#aH"/>
				<use transform="matrix(0.04,0,0,0.04,20.28,0)" xlink:href="#aU"/>
				<use transform="matrix(0.04,0,0,0.04,38.88,0)" xlink:href="#aN"/>
				<use transform="matrix(0.04,0,0,0.04,59.92,0)" xlink:href="#aV"/>
				<use transform="matrix(0.04,0,0,0.04,94.03999999999998,0)" xlink:href="#aW"/>
				<use transform="matrix(0.04,0,0,0.04,115.83999999999999,0)" xlink:href="#aX"/>
				<use transform="matrix(0.04,0,0,0.04,126.19999999999999,0)" xlink:href="#aH"/>
			</g>
			<path d="M74 0v-499h114v53s66-49 151-65v122c-90 18-151 52-151 52V0H74" id="aY"/>
			<path d="M265-511c166 0 224 100 224 259 0 161-52 263-224 263S40-89 40-252c0-160 56-259 225-259zm0 419c89 0 108-54 108-160 0-105-27-155-108-155-85 0-109 48-109 155 0 108 20 160 109 160" id="aZ"/>
			<path d="M78-6v-493h114V-5c0 134-37 178-174 247l-51-95C57 94 78 76 78-6zm0-581v-121h114v121H78" id="ba"/>
			<g id="M">
				<use transform="matrix(0.04,0,0,0.04,0,0)" xlink:href="#aW"/>
				<use transform="matrix(0.04,0,0,0.04,21.8,0)" xlink:href="#aY"/>
				<use transform="matrix(0.04,0,0,0.04,36.16,0)" xlink:href="#aZ"/>
				<use transform="matrix(0.04,0,0,0.04,57.31999999999999,0)" xlink:href="#ba"/>
				<use transform="matrix(0.04,0,0,0.04,67.83999999999999,0)" xlink:href="#aH"/>
				<use transform="matrix(0.04,0,0,0.04,88.11999999999999,0)" xlink:href="#aK"/>
				<use transform="matrix(0.04,0,0,0.04,105.55999999999999,0)" xlink:href="#aE"/>
			</g>
			<path d="M251-749v72H117V51h134v72H41v-872h210" id="bb"/>
			<path d="M41-677v-72h210v872H41V51h134v-728H41" id="bc"/>
			<g id="N">
				<use transform="matrix(0.04,0,0,0.04,0,0)" xlink:href="#ab"/>
				<use transform="matrix(0.04,0,0,0.04,14.52,0)" xlink:href="#ad"/>
				<use transform="matrix(0.04,0,0,0.04,37.120000000000005,0)" xlink:href="#aa"/>
				<use transform="matrix(0.04,0,0,0.04,46.56,0)" xlink:href="#af"/>
				<use transform="matrix(0.04,0,0,0.04,69.28,0)" xlink:href="#ay"/>
				<use transform="matrix(0.04,0,0,0.04,89.16,0)" xlink:href="#bb"/>
				<use transform="matrix(0.04,0,0,0.04,101.16,0)" xlink:href="#Y"/>
				<use transform="matrix(0.04,0,0,0.04,122.8,0)" xlink:href="#ae"/>
				<use transform="matrix(0.04,0,0,0.04,143.92,0)" xlink:href="#an"/>
				<use transform="matrix(0.04,0,0,0.04,162.32,0)" xlink:href="#bc"/>
			</g>
			<g id="O">
				<use transform="matrix(0.04,0,0,0.04,0,0)" xlink:href="#aC"/>
				<use transform="matrix(0.04,0,0,0.04,21.44,0)" xlink:href="#ae"/>
				<use transform="matrix(0.04,0,0,0.04,42.56,0)" xlink:href="#aw"/>
				<use transform="matrix(0.04,0,0,0.04,77.12,0)" xlink:href="#aw"/>
				<use transform="matrix(0.04,0,0,0.04,111.68,0)" xlink:href="#al"/>
				<use transform="matrix(0.04,0,0,0.04,134.04000000000002,0)" xlink:href="#af"/>
				<use transform="matrix(0.04,0,0,0.04,156.76000000000002,0)" xlink:href="#aa"/>
				<use transform="matrix(0.04,0,0,0.04,166.20000000000002,0)" xlink:href="#ab"/>
				<use transform="matrix(0.04,0,0,0.04,180.72000000000003,0)" xlink:href="#aq"/>
			</g>
			<g id="P">
				<use transform="matrix(0.04,0,0,0.04,0,0)" xlink:href="#az"/>
				<use transform="matrix(0.04,0,0,0.04,20.52,0)" xlink:href="#X"/>
				<use transform="matrix(0.04,0,0,0.04,40.8,0)" xlink:href="#ag"/>
				<use transform="matrix(0.04,0,0,0.04,61.67999999999999,0)" xlink:href="#ai"/>
				<use transform="matrix(0.04,0,0,0.04,75.91999999999999,0)" xlink:href="#af"/>
			</g>
			<g id="Q">
				<use transform="matrix(0.04,0,0,0.04,0,0)" xlink:href="#ae"/>
				<use transform="matrix(0.04,0,0,0.04,21.12,0)" xlink:href="#al"/>
				<use transform="matrix(0.04,0,0,0.04,43.480000000000004,0)" xlink:href="#ai"/>
			</g>
			<path d="M17-499h113l74 396h22l90-387h120l90 387h22l74-396h113L633 0H448l-73-334L302 0H119" id="bd"/>
			<g id="R">
				<use transform="matrix(0.04,0,0,0.04,0,0)" xlink:href="#aL"/>
				<use transform="matrix(0.04,0,0,0.04,22.48,0)" xlink:href="#aN"/>
				<use transform="matrix(0.04,0,0,0.04,43.51999999999999,0)" xlink:href="#aY"/>
				<use transform="matrix(0.04,0,0,0.04,57.879999999999995,0)" xlink:href="#aG"/>
				<use transform="matrix(0.04,0,0,0.04,79.8,0)" xlink:href="#bd"/>
				<use transform="matrix(0.04,0,0,0.04,109.88,0)" xlink:href="#aN"/>
				<use transform="matrix(0.04,0,0,0.04,130.92,0)" xlink:href="#aY"/>
				<use transform="matrix(0.04,0,0,0.04,145.27999999999997,0)" xlink:href="#aH"/>
			</g>
			<g id="S">
				<use transform="matrix(0.04,0,0,0.04,0,0)" xlink:href="#aN"/>
				<use transform="matrix(0.04,0,0,0.04,21.04,0)" xlink:href="#aI"/>
				<use transform="matrix(0.04,0,0,0.04,43.56,0)" xlink:href="#aG"/>
			</g>
			<path d="M429-488l-2 97s-120-16-180-16c-59 0-83 13-83 51 0 31 21 39 104 52 132 21 176 56 176 155 0 117-76 160-199 160-71 0-187-22-187-22l4-97s121 16 172 16c70 0 96-14 96-54 0-32-16-41-96-54-128-21-184-49-184-153 0-114 89-158 189-158 73 0 190 23 190 23" id="be"/>
			<path d="M192-396V0H78v-396H21v-103h57c-5-150 25-217 142-217 33 0 109 11 109 11l-1 94s-48-2-79-2c-55 0-59 48-57 114h129v103H192" id="bf"/>
			<g id="T">
				<use transform="matrix(0.04,0,0,0.04,0,0)" xlink:href="#be"/>
				<use transform="matrix(0.04,0,0,0.04,19.76,0)" xlink:href="#aZ"/>
				<use transform="matrix(0.04,0,0,0.04,40.92,0)" xlink:href="#bf"/>
				<use transform="matrix(0.04,0,0,0.04,54.52,0)" xlink:href="#aE"/>
				<use transform="matrix(0.04,0,0,0.04,68.68,0)" xlink:href="#bd"/>
				<use transform="matrix(0.04,0,0,0.04,98.76,0)" xlink:href="#aN"/>
				<use transform="matrix(0.04,0,0,0.04,119.8,0)" xlink:href="#aY"/>
				<use transform="matrix(0.04,0,0,0.04,134.16000000000003,0)" xlink:href="#aH"/>
			</g>
			<g id="U">
				<use transform="matrix(0.04,0,0,0.04,0,0)" xlink:href="#aY"/>
				<use transform="matrix(0.04,0,0,0.04,14.36,0)" xlink:href="#aH"/>
				<use transform="matrix(0.04,0,0,0.04,34.64,0)" xlink:href="#be"/>
				<use transform="matrix(0.04,0,0,0.04,54.40000000000001,0)" xlink:href="#aZ"/>
				<use transform="matrix(0.04,0,0,0.04,75.56,0)" xlink:href="#aF"/>
				<use transform="matrix(0.04,0,0,0.04,97.96000000000001,0)" xlink:href="#aY"/>
				<use transform="matrix(0.04,0,0,0.04,112.32000000000001,0)" xlink:href="#aK"/>
				<use transform="matrix(0.04,0,0,0.04,129.76000000000002,0)" xlink:href="#aH"/>
				<use transform="matrix(0.04,0,0,0.04,150.04000000000002,0)" xlink:href="#be"/>
			</g>
			<path d="M90 0v-696h421v73H166v269h285v73H166V0H90" id="bg"/>
			<g id="V">
				<use transform="matrix(0.035555555555555556,0,0,0.035555555555555556,0,0)" xlink:href="#bg"/>
				<use transform="matrix(0.035555555555555556,0,0,0.035555555555555556,19.662222222222223,0)" xlink:href="#ae"/>
				<use transform="matrix(0.035555555555555556,0,0,0.035555555555555556,38.43555555555555,0)" xlink:href="#al"/>
				<use transform="matrix(0.035555555555555556,0,0,0.035555555555555556,58.3111111111111,0)" xlink:href="#af"/>
				<use transform="matrix(0.035555555555555556,0,0,0.035555555555555556,78.50666666666666,0)" xlink:href="#ak"/>
				<use transform="matrix(0.035555555555555556,0,0,0.035555555555555556,97.81333333333333,0)" xlink:href="#X"/>
				<use transform="matrix(0.035555555555555556,0,0,0.035555555555555556,115.84,0)" xlink:href="#ai"/>
				<use transform="matrix(0.035555555555555556,0,0,0.035555555555555556,128.49777777777777,0)" xlink:href="#Z"/>
			</g>
		</defs>
	</g>
</svg>